<svg version="1.1" id="Layer_1" xmlns="http://www.w3.org/2000/svg" xmlns:xlink="http://www.w3.org/1999/xlink" x="0px" y="0px"
	 width="100%" viewBox="0 0 504 145" enable-background="new 0 0 504 145" xml:space="preserve">
<path fill="#FEFFFF" opacity="1.000000" stroke="none" 
	d="
M330.000000,146.000000 
	C221.333359,146.000000 113.166679,145.979202 5.000161,146.095383 
	C1.576275,146.099060 0.891164,145.425461 0.902100,141.999756 
	C1.048416,96.166885 1.036234,50.333313 0.916608,4.500301 
	C0.908822,1.517430 1.517927,0.917384 4.499959,0.919025 
	C170.166550,1.010182 335.833191,1.010172 501.499786,0.919084 
	C504.481049,0.917445 505.091217,1.516431 505.083466,4.500041 
	C504.963867,50.499722 504.963898,96.499901 505.083344,142.499588 
	C505.091064,145.482101 504.483337,146.088699 501.500061,146.082840 
	C444.500214,145.970703 387.500061,146.000000 330.000000,146.000000 
z"/>
<path fill="#18B5BC" opacity="1.000000" stroke="none" 
	d="
M84.986847,67.702942 
	C88.241844,61.711529 93.265327,57.749088 97.929031,53.588467 
	C100.458885,51.331512 104.368362,52.895172 107.648163,52.733383 
	C112.280533,52.504879 116.954597,53.661396 120.506172,48.733902 
	C122.555756,45.890282 127.897804,47.023434 130.162506,50.143105 
	C132.561493,53.447769 131.898804,56.807850 129.331573,59.700699 
	C126.919411,62.418823 122.496170,62.216328 119.418549,59.497932 
	C113.842789,54.573002 102.073509,55.688877 96.141769,59.920090 
	C87.004860,66.437607 87.885223,75.589241 89.330872,84.080521 
	C90.200562,89.188789 96.673531,85.324944 100.507332,86.245743 
	C102.247795,86.663765 104.781136,86.931824 104.689827,83.665321 
	C104.630928,81.558044 104.860550,79.744995 102.526253,78.108948 
	C98.567062,75.334084 98.356842,70.289391 101.421524,67.276627 
	C104.403641,64.345024 108.859375,64.382172 111.668747,67.362053 
	C114.745590,70.625656 114.411156,75.223579 110.322388,78.022423 
	C107.736130,79.792770 108.149567,82.034538 108.373451,84.188019 
	C108.842018,88.695259 107.422241,90.513214 102.603630,90.147041 
	C97.201477,89.736542 97.215004,90.061302 99.738525,94.829193 
	C103.304474,101.566681 107.099541,108.206329 110.221687,115.146461 
	C112.083321,119.284630 114.477081,120.628265 118.962090,120.459412 
	C128.824966,120.088097 128.777863,120.375229 124.401382,111.444260 
	C121.114922,104.737656 118.118530,97.887215 114.757744,91.219391 
	C112.976540,87.685478 113.868225,85.978302 117.662621,86.418091 
	C122.073006,86.929276 122.646423,84.717278 122.385307,81.177811 
	C122.177452,78.360161 122.357635,75.514427 122.350311,72.681206 
	C122.346848,71.340591 122.773460,70.391602 124.310684,70.391457 
	C125.832336,70.391312 126.292862,71.308075 126.289978,72.663246 
	C126.282875,75.996437 126.447578,79.338181 126.258949,82.660339 
	C126.095520,85.538467 127.258713,86.426849 130.024307,86.380585 
	C137.522034,86.255157 145.026917,86.203934 152.521423,86.404465 
	C155.716309,86.489960 156.706146,85.220772 156.353287,82.308189 
	C156.273697,81.651222 156.489975,80.934631 156.315689,80.317284 
	C155.738358,78.272133 157.921951,74.901031 154.844162,74.328690 
	C152.011078,73.801849 148.551086,72.646973 146.019913,76.513115 
	C143.612534,80.190216 138.458344,80.269897 135.434982,77.514084 
	C132.506195,74.844482 132.490341,70.180168 135.400238,67.291245 
	C138.517014,64.196938 143.024887,64.104698 145.809692,67.906815 
	C148.431274,71.486099 151.738144,70.244011 154.816025,70.255608 
	C158.551117,70.269691 160.488297,71.334419 160.079102,75.431763 
	C159.619446,80.034431 161.977875,85.900360 159.152176,88.967598 
	C156.247208,92.120895 150.318848,89.869415 145.727585,89.985268 
	C137.233047,90.199631 128.729614,90.060089 120.229942,90.084335 
	C119.927856,90.085197 119.626259,90.260078 118.756897,90.530197 
	C121.176399,95.803154 123.589294,101.005745 125.943977,106.234550 
	C126.500343,107.470009 127.354019,107.960030 128.664871,107.954048 
	C134.331207,107.928169 139.997818,107.955116 145.664108,107.924675 
	C147.401245,107.915344 148.262878,106.803581 149.175018,104.656067 
	C143.431091,104.656067 138.167191,104.656258 132.903275,104.655952 
	C131.391098,104.655861 129.726059,104.858147 129.738220,102.573540 
	C129.751373,100.102074 131.649017,100.733192 133.009613,100.720833 
	C138.675705,100.669357 144.342545,100.706596 150.009079,100.692444 
	C151.171326,100.689545 152.354416,100.725510 153.489792,100.526321 
	C154.705505,100.313042 155.889618,99.520462 155.690872,98.238281 
	C155.505981,97.045525 154.099655,97.319016 153.144165,97.316093 
	C145.977692,97.294182 138.811127,97.302849 131.644592,97.300652 
	C130.477997,97.300293 129.311386,97.295410 128.144806,97.289108 
	C127.058823,97.283249 126.212372,97.047707 126.124985,95.692612 
	C126.021484,94.087463 126.896729,93.698601 128.260437,93.700493 
	C137.926834,93.713921 147.594986,93.611710 157.258575,93.778328 
	C160.166046,93.828461 161.620010,97.493294 159.263031,100.207687 
	C154.302292,105.920654 150.214966,113.358124 140.469238,111.751564 
	C136.914886,111.165634 133.182907,111.657219 128.910141,111.657219 
	C130.217758,114.863052 131.210785,117.622627 132.457230,120.262543 
	C133.716858,122.930367 132.843918,124.028404 130.097824,124.035606 
	C124.431320,124.050461 118.763298,123.962608 113.098900,124.072441 
	C110.787834,124.117256 110.011299,122.680550 109.127129,120.995674 
	C104.355278,111.902443 99.416107,102.895233 94.769211,93.739319 
	C93.401634,91.044739 91.874573,89.844315 88.730064,89.965637 
	C82.073433,90.222458 75.396194,89.912231 68.735229,90.104927 
	C65.836266,90.188789 63.601761,89.518364 61.777382,87.203667 
	C60.650562,85.774002 59.389194,84.323723 57.889572,83.336281 
	C51.042213,78.827515 53.054192,71.931740 53.091511,65.663490 
	C53.108040,62.887127 55.702816,63.041069 57.672760,63.134087 
	C61.062454,63.294136 63.838032,63.037071 66.326019,59.863659 
	C68.742615,56.781307 74.270821,57.450214 76.474518,60.600555 
	C78.674774,63.745979 78.922035,67.119301 75.970459,70.134499 
	C73.156357,73.009262 68.813942,72.869461 65.726830,69.982819 
	C64.599693,68.928871 64.313599,66.742165 62.100414,67.058998 
	C60.356697,67.308624 57.437428,66.143738 57.085766,67.868645 
	C56.422962,71.119713 55.415028,74.907227 57.882580,77.921646 
	C59.981945,80.486275 62.553856,82.661499 64.883049,85.041924 
	C65.758812,85.936951 66.749817,86.561775 67.978188,86.140587 
	C69.508537,85.615852 68.823456,84.189133 68.933449,83.130226 
	C69.036240,82.140808 68.968765,81.132378 68.955681,80.132584 
	C68.939713,78.912193 68.946510,77.799332 70.655800,77.712723 
	C72.454399,77.621590 72.824944,78.501907 72.951561,80.115898 
	C73.110451,82.141441 71.711510,85.249519 74.019424,85.956276 
	C76.919144,86.844254 80.283440,86.355896 83.437180,86.222794 
	C85.451195,86.137787 84.916977,84.337753 84.931007,83.127296 
	C84.988960,78.127953 84.959877,73.127586 84.986847,67.702942 
z"/>
<path fill="#42474F" opacity="1.000000" stroke="none" 
	d="
M280.905701,105.787308 
	C272.464813,114.076614 260.594208,113.145050 255.181274,104.195175 
	C253.530548,101.465782 253.495117,98.454765 253.476517,95.518959 
	C253.373093,79.198990 253.358063,62.877605 253.457504,46.557590 
	C253.502747,39.130890 256.814484,33.657639 262.461853,31.921865 
	C268.820465,29.967482 274.908325,30.235342 279.896576,35.546097 
	C283.401459,39.277584 283.731323,43.825603 283.557037,48.558090 
	C283.502289,50.044350 282.653931,50.384197 281.313049,50.599545 
	C275.746735,51.493511 273.842529,50.335495 272.771240,44.968727 
	C272.214722,42.180744 270.331085,41.839573 267.956696,41.834385 
	C265.395813,41.828793 264.285461,43.116451 264.243896,45.467701 
	C264.176239,49.296883 264.214203,53.127995 264.213715,56.958290 
	C264.212128,69.781639 264.306519,82.606102 264.152802,95.427605 
	C264.110321,98.970604 265.256500,100.799797 268.900848,100.780220 
	C272.474854,100.761017 272.756042,98.238945 272.769897,95.627869 
	C272.811462,87.800858 272.706879,79.972221 272.832428,72.147011 
	C272.869629,69.831017 272.301025,68.965553 269.817841,68.959877 
	C263.839447,68.946198 267.701477,64.329132 266.896942,61.941467 
	C265.978027,59.214245 267.665466,58.413788 270.433868,58.356373 
	C283.576324,58.083801 283.574554,57.997879 283.574524,71.059349 
	C283.574524,79.552734 283.548889,88.046234 283.587463,96.539444 
	C283.602142,99.773712 283.057190,102.806702 280.905701,105.787308 
z"/>
<path fill="#40454D" opacity="1.000000" stroke="none" 
	d="
M192.616516,105.743729 
	C192.192673,107.680229 192.849289,110.049835 190.850937,110.365433 
	C188.104721,110.799149 185.158401,110.791191 182.437546,110.258568 
	C180.732391,109.924767 181.886749,107.889290 182.054214,106.748520 
	C185.141205,85.719444 188.322693,64.704231 191.491165,43.687138 
	C191.614914,42.866299 191.841568,42.060867 191.963058,41.239788 
	C193.315369,32.100723 193.319351,32.325996 202.564301,32.038349 
	C206.662170,31.910849 207.721146,33.346947 208.357529,37.215088 
	C212.202545,60.586239 216.317429,83.914314 220.560898,107.216949 
	C221.104858,110.204102 220.274185,110.469490 217.739670,110.637138 
	C213.024841,110.949005 209.589737,110.842766 209.520325,104.388527 
	C209.456757,98.479942 207.623718,92.611595 207.122452,86.678871 
	C206.801727,82.882919 204.396957,83.324707 202.245529,83.651619 
	C199.728821,84.034050 195.814346,81.486008 195.153381,86.548325 
	C194.336212,92.806847 193.490601,99.061653 192.616516,105.743729 
z"/>
<path fill="#41454D" opacity="1.000000" stroke="none" 
	d="
M399.735962,100.978241 
	C399.507935,102.394012 399.398834,103.383621 399.251892,104.367577 
	C398.369781,110.273628 395.450958,112.063675 389.621674,110.560005 
	C386.696991,109.805580 388.340363,107.809792 388.515411,106.577515 
	C390.359222,93.600853 392.388855,80.650696 394.343353,67.689636 
	C395.927124,57.187012 397.550964,46.689465 398.997620,36.167747 
	C399.403748,33.213894 400.362976,32.008396 403.669586,32.040516 
	C413.864716,32.139545 413.922333,31.954615 415.713989,42.112354 
	C419.452179,63.305981 423.174011,84.502937 426.721497,105.728790 
	C426.974243,107.241142 429.079865,110.835457 425.020050,110.372147 
	C422.190582,110.049225 417.348877,113.697975 416.598236,107.107742 
	C415.849854,100.537445 414.494934,94.035744 413.762939,87.464203 
	C413.127136,81.756393 408.948578,84.064217 405.941956,83.553360 
	C402.567932,82.980064 401.724670,84.719734 401.490936,87.708435 
	C401.154846,92.005592 400.408569,96.270683 399.735962,100.978241 
z"/>
<path fill="#41464E" opacity="1.000000" stroke="none" 
	d="
M331.531891,32.558674 
	C339.052063,32.212097 346.224060,32.360851 353.378601,32.073780 
	C358.075897,31.885303 356.845398,35.080009 356.799286,37.452343 
	C356.754395,39.759914 358.232391,43.308350 353.472961,42.875977 
	C352.315948,42.770870 351.141205,42.861317 349.974609,42.861439 
	C341.568665,42.862331 341.568634,42.862293 341.569702,51.160084 
	C341.570679,58.733265 341.581299,59.026932 351.769318,58.659695 
	C356.485229,58.489704 356.694153,60.534634 356.677673,64.201538 
	C356.661804,67.738640 356.269257,69.469025 351.940186,69.334038 
	C341.577850,69.010925 341.569489,69.271461 341.569794,79.621956 
	C341.569977,85.288269 341.681305,90.957680 341.521912,96.619484 
	C341.449768,99.182541 342.190521,100.255814 344.869232,100.021568 
	C347.184692,99.819084 349.569794,100.247276 351.856934,99.922867 
	C356.173218,99.310661 356.954803,101.128174 357.030731,105.147034 
	C357.114716,109.592873 355.873352,110.974213 351.442474,110.664948 
	C345.803619,110.271362 340.114410,110.478699 334.451172,110.610786 
	C332.005981,110.667824 330.905487,110.144028 330.923920,107.347549 
	C331.087280,82.521858 331.111206,57.695255 331.531891,32.558674 
z"/>
<path fill="#474B53" opacity="1.000000" stroke="none" 
	d="
M304.880096,40.071098 
	C304.880157,59.045929 304.954926,77.532448 304.809540,96.017227 
	C304.784241,99.234703 305.598114,100.586670 308.929108,100.160736 
	C310.731567,99.930252 312.620728,100.342125 314.413208,100.076233 
	C318.927734,99.406548 320.389984,101.034592 320.193298,105.679451 
	C320.034332,109.434387 319.345642,110.951332 315.260803,110.691803 
	C309.455322,110.322952 303.606201,110.491814 297.781342,110.644875 
	C295.138763,110.714310 294.350952,109.757095 294.358917,107.176476 
	C294.433014,83.194962 294.482239,59.212627 294.331299,35.231831 
	C294.303802,30.857470 297.124390,31.856180 299.322449,32.053883 
	C301.458252,32.245987 305.200195,30.140646 304.893219,35.086540 
	C304.800537,36.579613 304.879669,38.083344 304.880096,40.071098 
z"/>
<path fill="#42474E" opacity="1.000000" stroke="none" 
	d="
M231.978668,36.148781 
	C231.698685,28.949453 236.772430,32.796768 239.384949,32.068977 
	C242.644028,31.161083 242.597916,33.624584 242.594421,35.946495 
	C242.559372,59.247925 242.408401,82.551437 242.693542,105.849434 
	C242.761475,111.400078 239.372238,109.668449 236.571930,110.058586 
	C232.914536,110.568115 231.843079,109.373695 231.877258,105.536942 
	C232.081802,82.570160 231.978607,59.600651 231.978668,36.148781 
z"/>
<path fill="#42474E" opacity="1.000000" stroke="none" 
	d="
M449.021362,84.000000 
	C449.021301,91.821884 448.738495,99.158653 449.122864,106.460297 
	C449.369446,111.144371 446.413757,110.075737 444.008728,109.968117 
	C441.591064,109.859924 438.293762,111.533165 438.337708,106.423515 
	C438.540955,82.795547 438.525787,59.164143 438.355469,35.535656 
	C438.315063,29.931517 442.155792,32.398731 444.555176,32.038754 
	C447.054535,31.663788 449.206390,31.477934 449.134857,35.576931 
	C448.856140,51.547085 449.021301,67.524979 449.021362,84.000000 
z"/>
<path fill="#16B4BB" opacity="1.000000" stroke="none" 
	d="
M89.003860,16.960098 
	C94.498108,16.960516 99.496483,17.059425 104.488388,16.922607 
	C107.265221,16.846498 108.485657,17.857271 108.319023,20.689423 
	C108.182327,23.012630 108.362068,25.353025 108.273430,27.680922 
	C108.193596,29.777617 108.641289,31.241766 110.563034,32.686607 
	C114.346924,35.531471 114.732170,40.116405 111.983925,43.100849 
	C109.234879,46.086159 104.346016,46.405640 101.685730,43.773815 
	C98.321671,40.445751 98.661362,35.893646 102.530785,32.449413 
	C104.330490,30.847460 105.660339,23.158716 104.367012,21.517534 
	C103.539894,20.467951 102.271606,20.673328 101.133934,20.665861 
	C96.971046,20.638531 92.802361,20.525524 88.647430,20.708252 
	C86.858994,20.786903 84.139221,19.511774 83.521835,22.231737 
	C82.971870,24.654642 82.597672,27.244646 85.630089,29.208055 
	C89.134850,31.477291 89.927269,35.017040 87.386559,38.725792 
	C84.824875,42.465168 80.316658,43.088001 77.053749,40.251591 
	C73.671379,37.311317 73.363312,32.818176 76.671303,29.773893 
	C78.293663,28.280859 80.218796,27.247982 79.704597,24.612776 
	C79.443382,23.274086 80.420403,21.408358 78.290245,20.854832 
	C76.811371,20.470543 75.332558,20.507925 74.114021,21.731659 
	C68.711288,27.157459 63.303631,32.578510 57.868210,37.971500 
	C56.492214,39.336754 56.373440,40.937878 56.981739,42.567474 
	C57.603527,44.233200 59.219616,43.607697 60.457851,43.683285 
	C61.951023,43.774437 63.509369,43.966923 64.943321,43.662498 
	C72.243225,42.112751 75.625626,47.627678 79.811249,51.719078 
	C80.663490,52.552135 80.751183,53.368221 79.823090,54.264389 
	C78.954842,55.102760 78.154594,55.248936 77.266472,54.348946 
	C76.798752,53.874981 76.195717,53.490234 75.856987,52.940086 
	C72.082184,46.809124 66.148048,46.984516 60.024868,47.225231 
	C57.351780,47.330318 56.516140,48.334087 56.631912,50.806404 
	C56.740826,53.132217 56.621822,55.467934 56.641529,57.798973 
	C56.653820,59.253174 56.013481,59.911728 54.533340,59.854286 
	C53.107037,59.798931 52.989262,58.805870 52.985359,57.791016 
	C52.961647,51.629833 52.973358,45.468513 52.970337,39.307243 
	C52.969517,37.634846 54.066360,36.584099 55.122009,35.521259 
	C57.820755,32.804150 60.932457,30.392736 63.165848,27.337708 
	C69.560791,18.590149 77.868202,15.072041 89.003860,16.960098 
z"/>
<path fill="#14B3BB" opacity="1.000000" stroke="none" 
	d="
M148.091125,30.912069 
	C145.369629,28.188860 142.853943,25.758732 140.441559,23.230028 
	C138.484528,21.178638 135.877533,19.014280 133.817566,21.675999 
	C132.468323,23.419386 132.144196,27.031557 135.443619,29.016800 
	C138.577621,30.902508 139.248260,33.966549 138.088928,37.268570 
	C137.069458,40.172218 134.869400,41.858196 131.692612,41.988152 
	C128.489853,42.119160 126.196983,40.403355 124.970711,37.729507 
	C123.713547,34.988297 124.245773,32.154068 126.406960,29.877802 
	C127.197479,29.045193 128.462143,28.598875 129.086777,27.686304 
	C130.294449,25.921949 129.943588,23.782351 129.426743,21.917150 
	C128.894516,19.996521 126.932579,20.715345 125.556374,20.677530 
	C121.896393,20.576969 118.231956,20.624704 114.569397,20.639553 
	C113.093872,20.645535 111.919617,20.414715 111.992165,18.511431 
	C112.062576,16.664368 113.420090,16.986559 114.504524,16.982454 
	C121.996208,16.954081 129.488617,17.017120 136.979462,16.932211 
	C139.063232,16.908590 140.381927,18.004517 141.691238,19.316072 
	C147.101273,24.735413 152.480392,30.186361 157.949310,35.545658 
	C159.337982,36.906490 160.107422,38.264923 160.079498,40.300636 
	C159.972153,48.123928 160.069061,55.949848 160.002365,63.774044 
	C159.991470,65.052429 160.778732,67.063080 158.210938,66.980072 
	C155.806900,66.902351 156.494507,65.008743 156.375900,63.651134 
	C156.289276,62.659698 156.246460,61.640263 156.375595,60.658489 
	C156.843307,57.102654 155.254913,55.941853 151.833908,56.238354 
	C149.024872,56.481812 146.177658,56.299557 143.347565,56.279167 
	C142.026611,56.269646 140.506332,56.451424 140.421677,54.482357 
	C140.329514,52.338768 141.968338,52.738049 143.226059,52.724285 
	C146.555374,52.687843 149.885544,52.729633 153.214813,52.691345 
	C154.332977,52.678490 155.512466,52.851669 156.171005,51.459892 
	C157.495819,48.660061 155.889694,38.718143 153.644394,36.453072 
	C151.886612,34.679825 150.109863,32.925362 148.091125,30.912069 
z"/>
<path fill="#4F535A" opacity="1.000000" stroke="none" 
	d="
M376.372192,100.801605 
	C376.767609,102.403702 376.888489,103.713882 376.897369,105.024834 
	C376.933594,110.379112 374.427643,112.390625 369.343445,110.525650 
	C365.925598,109.271919 368.283997,105.968201 367.800629,103.645844 
	C367.461304,102.015656 367.586487,100.230782 370.129791,100.358879 
	C372.099457,100.458084 374.073853,100.463135 376.372192,100.801605 
z"/>
<path fill="#E2F6F7" opacity="1.000000" stroke="none" 
	d="
M67.802994,63.535378 
	C69.589447,61.269627 71.440468,61.347843 73.224854,62.771076 
	C74.587631,63.858028 74.390312,65.493683 73.839287,66.898010 
	C73.305077,68.259491 71.979965,69.008965 70.600967,68.592224 
	C68.387840,67.923424 66.680397,66.654755 67.802994,63.535378 
z"/>
<path fill="#E7F7F8" opacity="1.000000" stroke="none" 
	d="
M122.018311,56.912430 
	C120.300774,54.654697 120.756401,52.925301 122.613388,51.583569 
	C124.181274,50.450726 125.717690,50.915424 126.988106,52.214035 
	C128.167679,53.419785 128.228210,54.798092 127.332542,56.215313 
	C126.001839,58.320911 124.262131,58.338078 122.018311,56.912430 
z"/>
<path fill="#E7F7F8" opacity="1.000000" stroke="none" 
	d="
M143.713806,71.319351 
	C144.268356,74.308098 142.551056,75.323364 140.490326,75.681656 
	C138.904694,75.957344 137.595963,75.024368 137.129593,73.418373 
	C136.670624,71.837898 137.202087,70.447456 138.614548,69.563805 
	C140.733398,68.238228 142.353943,68.981987 143.713806,71.319351 
z"/>
<path fill="#E6F7F8" opacity="1.000000" stroke="none" 
	d="
M104.719330,69.466782 
	C107.290413,68.436035 108.954376,69.246376 109.787766,71.356560 
	C110.387924,72.876167 109.752083,74.293884 108.303818,75.106697 
	C106.968773,75.855957 105.462433,76.289314 104.294708,74.867836 
	C102.906075,73.177414 102.519066,71.376060 104.719330,69.466782 
z"/>
<path fill="#F1F1F2" opacity="1.000000" stroke="none" 
	d="
M204.209915,67.672997 
	C204.706253,69.637871 205.756042,71.880844 204.337845,72.557182 
	C202.579193,73.395866 200.169846,72.987610 198.049942,72.904449 
	C196.894257,72.859123 197.154541,71.835915 197.269516,71.016815 
	C198.287888,63.761551 199.289841,56.503983 200.296646,49.247097 
	C200.713516,49.230839 201.130386,49.214577 201.547256,49.198318 
	C202.426880,55.210407 203.306503,61.222496 204.209915,67.672997 
z"/>
<path fill="#EFF0F0" opacity="1.000000" stroke="none" 
	d="
M409.387207,58.578255 
	C410.019135,62.436832 410.579773,65.873253 410.959747,69.329536 
	C411.089722,70.511810 412.096313,72.358604 410.421112,72.807999 
	C408.561920,73.306763 406.383026,73.260742 404.491913,72.817703 
	C402.460358,72.341751 403.855255,70.551125 403.993927,69.444710 
	C404.875977,62.408787 405.904541,55.391239 407.864136,48.341286 
	C408.324463,51.615482 408.784760,54.889679 409.387207,58.578255 
z"/>
<path fill="#E9F8F9" opacity="1.000000" stroke="none" 
	d="
M105.330322,41.742264 
	C102.998344,39.894341 102.002159,37.987720 104.255859,35.800491 
	C105.452469,34.639175 106.925728,34.599712 108.339859,35.475044 
	C109.557739,36.228897 110.182121,37.358898 109.968109,38.814487 
	C109.605225,41.282681 107.896049,41.923809 105.330322,41.742264 
z"/>
<path fill="#E6F7F8" opacity="1.000000" stroke="none" 
	d="
M78.156898,34.336330 
	C79.248779,32.132801 80.363396,30.569120 82.858749,31.713802 
	C84.409584,32.425213 85.180336,33.614895 84.922714,35.246700 
	C84.676575,36.805756 83.799217,37.999889 82.038734,38.116055 
	C79.629982,38.274998 78.378098,37.027737 78.156898,34.336330 
z"/>
<path fill="#E8F7F8" opacity="1.000000" stroke="none" 
	d="
M129.159515,32.329693 
	C131.507416,30.690714 133.260406,31.266262 134.524002,33.170361 
	C135.452957,34.570168 135.076584,36.066158 133.914352,37.244598 
	C132.706100,38.469704 131.211380,38.495552 129.829041,37.672894 
	C127.670464,36.388298 127.633736,34.573772 129.159515,32.329693 
z"/>
</svg>